<?xml version="1.0" encoding="utf-8"?>
<!-- Generator: Adobe Illustrator 19.2.0, SVG Export Plug-In . SVG Version: 6.00 Build 0)  -->
<svg version="1.1" id="Warstwa_1" xmlns="http://www.w3.org/2000/svg" xmlns:xlink="http://www.w3.org/1999/xlink" x="0px" y="0px"
	 viewBox="0 0 200 130" style="enable-background:new 0 0 200 130;" xml:space="preserve">
<style type="text/css">
	.st0{fill:none;stroke:#00ac62;stroke-width:12;stroke-linecap:square;stroke-miterlimit:10;}
	.st1{fill:#00ac62;}
</style>
<polyline class="st0" points="20.5,80.9 20.5,21 176,21 176,80.9 "/>
<g>
	<path class="st1" d="M22.2,94c3.9,0,6.8,2,6.8,6.1s-2.9,6.4-6.8,6.4h-2.7v7.3H15V94H22.2z M20.8,102.9c1.8,0,3.5-0.6,3.5-2.6
		s-1.7-2.6-3.5-2.6h-1.3v5.3L20.8,102.9L20.8,102.9z"/>
	<path class="st1" d="M38.2,113.8h-4.5V94h4.5V113.8z"/>
	<path class="st1" d="M42.9,104.1l1.8-1.4V94h4.5v5.2l2.5-2v3.7l-2.5,2v7H56v4H44.7v-7.4l-1.8,1.4V104.1z"/>
	<path class="st1" d="M72,113.8l-7.3-8.4v8.4h-4.5V94h4.5v8.1l6.8-8.1H77l-8,9.4l9.2,10.4L72,113.8L72,113.8z"/>
	<path class="st1" d="M99.8,113.8H95l-1.5-4H86l-1.5,4h-4.8l8-19.8h4.2L99.8,113.8z M89.8,100.1L89.8,100.1l-2.3,5.8H92L89.8,100.1z
		"/>
	<path class="st1" d="M110.4,94c3.7,0,6.5,2,6.5,5.9c0,3-1.6,5-4.1,5.7l6.8,8.2h-5.7l-6-7.8v7.8h-4.5V94H110.4z M108.3,102.8
		c1.7,0,3.7-0.1,3.7-2.6s-2-2.6-3.7-2.6h-0.5v5.2L108.3,102.8L108.3,102.8z"/>
	<path class="st1" d="M130,109.8h9.2v4h-17L132,98h-8.4v-4h16.3L130,109.8z"/>
	<path class="st1" d="M155.7,98h-6.8v3.9h6.5v4h-6.5v4h6.8v4h-11.3V94h11.3V98z"/>
	<path class="st1" d="M176.4,102.1h-0.1l-4.1,11.6h-2.7l-4.1-11.6h-0.1l-0.9,11.7h-4.5l1.8-19.8h4.8l4.4,11.4l4.4-11.4h4.8l1.8,19.8
		h-4.5L176.4,102.1z"/>
</g>
<g>
	<path class="st1" d="M47.5,83h9.2v4h-17l9.8-15.8H41v-4h16.3L47.5,83z"/>
	<path class="st1" d="M71,66.8c5.5,0,10,4.5,10,10.2c0,5.8-4.3,10.3-10,10.3c-5.9,0-10-4.5-10-10.3S65.5,66.8,71,66.8z M71,82.9
		c3.6,0,5.1-3,5.1-5.9s-1.6-5.9-5.1-5.9s-5.1,3-5.1,5.9S67.3,82.9,71,82.9z"/>
	<path class="st1" d="M99.1,68.7l-1.8,3.6c0,0-2-1.4-4-1.4c-1.5,0-2.4,0.7-2.4,1.8c0,1.1,1.9,1.9,4.1,2.9c2.2,0.9,4.6,2.8,4.6,5.4
		c0,4.7-3.6,6.4-7.5,6.4c-4.6,0-7.4-2.6-7.4-2.6L87,81c0,0,2.6,2.2,4.8,2.2c1,0,2.9-0.1,2.9-1.9c0-1.4-2.1-2.1-4.5-3.3
		c-2.4-1.2-3.8-3-3.8-5.1c0-3.7,3.3-6,6.5-6C96.5,66.8,99.1,68.7,99.1,68.7z"/>
	<path class="st1" d="M102.1,67.1H116v4h-4.7v15.8h-4.5V71.1h-4.7C102.1,71.1,102.1,67.1,102.1,67.1z"/>
	<path class="st1" d="M137.2,86.9h-4.8l-1.5-4h-7.5l-1.5,4h-4.8l8-19.8h4.2L137.2,86.9z M127.2,73.3L127.2,73.3l-2.3,5.8h4.5
		L127.2,73.3z"/>
	<path class="st1" d="M150.5,82.9c2.3,0,3.9-1.2,3.9-1.2l1.9,3.8c0,0-2.2,1.8-6.5,1.8c-5.6,0-10.7-4.6-10.7-10.2
		c0-5.7,5.1-10.3,10.7-10.3c4.3,0,6.5,1.8,6.5,1.8l-1.9,3.8c0,0-1.6-1.2-3.9-1.2c-4.5,0-6.5,3.2-6.5,5.8
		C144,79.7,145.9,82.9,150.5,82.9z M145,63.5l1.3,1.8L152,62l-2.2-2.8L145,63.5z"/>
</g>
</svg>
